HIERARCHY
ROOT Hips
{
  OFFSET 12.5924 87.7646 8.5502
  CHANNELS 6 Xposition Yposition Zposition Zrotation Xrotation Yrotation
  JOINT RightUpLeg
  {
    OFFSET -9.27424 -1.51647 -0.00177081
    CHANNELS 3 Zrotation Xrotation Yrotation
    JOINT RightLeg
    {
      OFFSET -0.0218595 -41.9179 0.0996455
      CHANNELS 3 Zrotation Xrotation Yrotation
      JOINT RightFoot
      {
        OFFSET -0.864559 -41.9626 -0.357059
        CHANNELS 3 Zrotation Xrotation Yrotation
        End Site
        {
          OFFSET 0 -7.69 17.5
        }
      }
    }
  }
  JOINT LeftUpLeg
  {
    OFFSET 9.25718 -1.5867 0.052377
    CHANNELS 3 Zrotation Xrotation Yrotation
    JOINT LeftLeg
    {
      OFFSET 0.0916619 -41.8676 0.000817906
      CHANNELS 3 Zrotation Xrotation Yrotation
      JOINT LeftFoot
      {
        OFFSET -0.467602 -41.8546 0.208385
        CHANNELS 3 Zrotation Xrotation Yrotation
        End Site
        {
          OFFSET 0 -7.69 17.5
        }
      }
    }
  }
  JOINT Spine
  {
    OFFSET 0.0181296 14.2981 0.0454815
    CHANNELS 3 Zrotation Xrotation Yrotation
    JOINT Spine1
    {
      OFFSET 0.0179205 9.71532 0.0144816
      CHANNELS 3 Zrotation Xrotation Yrotation
      JOINT Spine2
      {
        OFFSET 0.0460832 10.1118 -0.00781291
        CHANNELS 3 Zrotation Xrotation Yrotation
        JOINT Spine3
        {
          OFFSET 0.0326005 9.72657 -0.000132442
          CHANNELS 3 Zrotation Xrotation Yrotation
          JOINT Neck
          {
            OFFSET -0.0594321 10.3688 0.0892585
            CHANNELS 3 Zrotation Xrotation Yrotation
            JOINT Head
            {
              OFFSET -0.027184 9.52116 0.11923
              CHANNELS 3 Zrotation Xrotation Yrotation
              End Site
              {
                OFFSET 0 15.95 0
              }
            }
          }
          JOINT RightShoulder
          {
            OFFSET -3.18249 6.94712 0.0315742
            CHANNELS 3 Zrotation Xrotation Yrotation
            JOINT RightArm
            {
              OFFSET -12.6859 -0.0281953 -0.0223312
              CHANNELS 3 Zrotation Xrotation Yrotation
              JOINT RightForeArm
              {
                OFFSET -26.4349 -0.138904 0.103809
                CHANNELS 3 Zrotation Xrotation Yrotation
                JOINT RightHand
                {
                  OFFSET -26.0404 -0.036643 0.02476
                  CHANNELS 3 Zrotation Xrotation Yrotation
                  JOINT RightHandThumb1
                  {
                    OFFSET -2.48905 0.190105 3.12053
                    CHANNELS 3 Zrotation Xrotation Yrotation
                    JOINT RightHandThumb2
                    {
                      OFFSET -3.68274 0 0
                      CHANNELS 3 Zrotation Xrotation Yrotation
                      JOINT RightHandThumb3
                      {
                        OFFSET -2.55832 0 0
                        CHANNELS 3 Zrotation Xrotation Yrotation
                        End Site
                        {
                          OFFSET -2.194 0 0
                        }
                      }
                    }
                  }
                  JOINT RightInHandIndex
                  {
                    OFFSET -3.22368 0.508421 1.97842
                    CHANNELS 3 Zrotation Xrotation Yrotation
                    JOINT RightHandIndex1
                    {
                      OFFSET -5.21684 -0.091368 0.999158
                      CHANNELS 3 Zrotation Xrotation Yrotation
                      JOINT RightHandIndex2
                      {
                        OFFSET -3.61937 0 0
                        CHANNELS 3 Zrotation Xrotation Yrotation
                        JOINT RightHandIndex3
                        {
                          OFFSET -2.0521 0 0
                          CHANNELS 3 Zrotation Xrotation Yrotation
                          End Site
                          {
                            OFFSET -1.805 0 0
                          }
                        }
                      }
                    }
                  }
                  JOINT RightInHandMiddle
                  {
                    OFFSET -3.38211 0.517263 0.756737
                    CHANNELS 3 Zrotation Xrotation Yrotation
                    JOINT RightHandMiddle1
                    {
                      OFFSET -5.17411 -0.084 0.313895
                      CHANNELS 3 Zrotation Xrotation Yrotation
                      JOINT RightHandMiddle2
                      {
                        OFFSET -3.94947 0 0
                        CHANNELS 3 Zrotation Xrotation Yrotation
                        JOINT RightHandMiddle3
                        {
                          OFFSET -2.47579 0 0
                          CHANNELS 3 Zrotation Xrotation Yrotation
                          End Site
                          {
                            OFFSET -1.975 0 0
                          }
                        }
                      }
                    }
                  }
                  JOINT RightInHandRing
                  {
                    OFFSET -3.36516 0.537895 -0.128947
                    CHANNELS 3 Zrotation Xrotation Yrotation
                    JOINT RightHandRing1
                    {
                      OFFSET -4.63474 -0.022105 -0.478947
                      CHANNELS 3 Zrotation Xrotation Yrotation
                      JOINT RightHandRing2
                      {
                        OFFSET -3.44238 0 0
                        CHANNELS 3 Zrotation Xrotation Yrotation
                        JOINT RightHandRing3
                        {
                          OFFSET -2.3881 0 0
                          CHANNELS 3 Zrotation Xrotation Yrotation
                          End Site
                          {
                            OFFSET -1.857 0 0
                          }
                        }
                      }
                    }
                  }
                  JOINT RightInHandPinky
                  {
                    OFFSET -3.16105 0.469368 -1.20179
                    CHANNELS 3 Zrotation Xrotation Yrotation
                    JOINT RightHandPinky1
                    {
                      OFFSET -4.14105 -0.022105 -1.09053
                      CHANNELS 3 Zrotation Xrotation Yrotation
                      JOINT RightHandPinky2
                      {
                        OFFSET -2.75653 0 0
                        CHANNELS 3 Zrotation Xrotation Yrotation
                        JOINT RightHandPinky3
                        {
                          OFFSET -1.74189 0 0
                          CHANNELS 3 Zrotation Xrotation Yrotation
                          End Site
                          {
                            OFFSET -1.645 0 0
                          }
                        }
                      }
                    }
                  }
                }
              }
            }
          }
          JOINT LeftShoulder
          {
            OFFSET 3.21289 6.91298 -0.0113859
            CHANNELS 3 Zrotation Xrotation Yrotation
            JOINT LeftArm
            {
              OFFSET 12.7691 -0.0256594 -0.0399854
              CHANNELS 3 Zrotation Xrotation Yrotation
              JOINT LeftForeArm
              {
                OFFSET 26.4177 -0.0137926 -0.00219879
                CHANNELS 3 Zrotation Xrotation Yrotation
                JOINT LeftHand
                {
                  OFFSET 26.0013 -0.0633708 -0.0119906
                  CHANNELS 3 Zrotation Xrotation Yrotation
                  JOINT LeftHandThumb1
                  {
                    OFFSET 2.48905 0.190105 3.12053
                    CHANNELS 3 Zrotation Xrotation Yrotation
                    JOINT LeftHandThumb2
                    {
                      OFFSET 3.68274 0 0
                      CHANNELS 3 Zrotation Xrotation Yrotation
                      JOINT LeftHandThumb3
                      {
                        OFFSET 2.55832 0 0
                        CHANNELS 3 Zrotation Xrotation Yrotation
                        End Site
                        {
                          OFFSET 2.194 0 0
                        }
                      }
                    }
                  }
                  JOINT LeftInHandIndex
                  {
                    OFFSET 3.22368 0.508421 1.97842
                    CHANNELS 3 Zrotation Xrotation Yrotation
                    JOINT LeftHandIndex1
                    {
                      OFFSET 5.21684 -0.091368 0.999158
                      CHANNELS 3 Zrotation Xrotation Yrotation
                      JOINT LeftHandIndex2
                      {
                        OFFSET 3.61937 0 0
                        CHANNELS 3 Zrotation Xrotation Yrotation
                        JOINT LeftHandIndex3
                        {
                          OFFSET 2.0521 0 0
                          CHANNELS 3 Zrotation Xrotation Yrotation
                          End Site
                          {
                            OFFSET 1.805 0 0
                          }
                        }
                      }
                    }
                  }
                  JOINT LeftInHandMiddle
                  {
                    OFFSET 3.38211 0.517263 0.756737
                    CHANNELS 3 Zrotation Xrotation Yrotation
                    JOINT LeftHandMiddle1
                    {
                      OFFSET 5.17411 -0.084 0.313895
                      CHANNELS 3 Zrotation Xrotation Yrotation
                      JOINT LeftHandMiddle2
                      {
                        OFFSET 3.94947 0 0
                        CHANNELS 3 Zrotation Xrotation Yrotation
                        JOINT LeftHandMiddle3
                        {
                          OFFSET 2.47579 0 0
                          CHANNELS 3 Zrotation Xrotation Yrotation
                          End Site
                          {
                            OFFSET 1.975 0 0
                          }
                        }
                      }
                    }
                  }
                  JOINT LeftInHandRing
                  {
                    OFFSET 3.36516 0.537895 -0.128947
                    CHANNELS 3 Zrotation Xrotation Yrotation
                    JOINT LeftHandRing1
                    {
                      OFFSET 4.63474 -0.022105 -0.478947
                      CHANNELS 3 Zrotation Xrotation Yrotation
                      JOINT LeftHandRing2
                      {
                        OFFSET 3.44238 0 0
                        CHANNELS 3 Zrotation Xrotation Yrotation
                        JOINT LeftHandRing3
                        {
                          OFFSET 2.3881 0 0
                          CHANNELS 3 Zrotation Xrotation Yrotation
                          End Site
                          {
                            OFFSET 1.857 0 0
                          }
                        }
                      }
                    }
                  }
                  JOINT LeftInHandPinky
                  {
                    OFFSET 3.16105 0.469368 -1.20179
                    CHANNELS 3 Zrotation Xrotation Yrotation
                    JOINT LeftHandPinky1
                    {
                      OFFSET 4.14105 -0.022105 -1.09053
                      CHANNELS 3 Zrotation Xrotation Yrotation
                      JOINT LeftHandPinky2
                      {
                        OFFSET 2.75653 0 0
                        CHANNELS 3 Zrotation Xrotation Yrotation
                        JOINT LeftHandPinky3
                        {
                          OFFSET 1.74189 0 0
                          CHANNELS 3 Zrotation Xrotation Yrotation
                          End Site
                          {
                            OFFSET 1.645 0 0
                          }
                        }
                      }
                    }
                  }
                }
              }
            }
          }
        }
      }
    }
  }
}
MOTION
Frames: 3
Frame Time: 0.00833333
6.003585459697410442e+02 -6.522267187393385179e-02 -4.377538919847339671e-01 4.053507741824909916e-01 -7.140560433006336583e-01 -1.132954076818331490e+00 1.562691627435358388e+00 9.837509092616836259e-01 5.590342373132893838e-01 -1.265819801152559543e-01 -1.216446370595310744e-01 5.947745871419534147e-01 -2.883982450050667778e-01 1.707393411155315455e-01 8.476726482371328419e-01 1.274609814379952910e+00 2.337538426941440761e+00 -4.739199849703933931e-01 -2.404490988082450098e+00 -3.531578663444748800e-01 1.693484901240262408e+00 -1.634286859146895088e-01 -5.092842121246651255e-01 7.188161004973447898e-01 5.190221682269491321e-02 -1.116674372248352309e+00 -2.826492296769095969e+00 -5.737774230904112626e-04 -9.333237715066713958e-02 -7.727016726545425929e-01 5.901671775348188258e-03 -1.776948854566906821e-01 -1.048668128181790227e+00 4.616393251629668376e-02 -6.916559383290503404e-02 1.230167592131158477e-01 -5.203421191501453880e-01 -8.076434816126873972e-01 6.797238718521520617e+00 1.616038416095426200e+00 1.153044639629551282e+00 -2.394085144108922591e+00 -1.094065921702779720e+00 3.748003904419832111e-01 9.990728529592318718e-01 2.141914955646715413e+00 -1.525142655913467138e+01 -3.337868427752433753e+00 1.530390298037785479e+00 1.678214730693415291e+01 1.060132204477636542e+01 -6.214330823307083307e+00 8.740878930470362462e+00 4.293009950342653980e+00 0.000000000000000000e+00 0.000000000000000000e+00 0.000000000000000000e+00 -8.487076843802735968e-16 1.098867182971241603e-15 0.000000000000000000e+00 1.298510669520277462e-15 -9.721763436331237684e-16 0.000000000000000000e+00 4.363261231232033102e-15 5.395158882736878851e-15 -1.637018673031193460e-15 0.000000000000000000e+00 0.000000000000000000e+00 0.000000000000000000e+00 0.000000000000000000e+00 5.474552343238325052e-16 -6.141047087742733288e-15 0.000000000000000000e+00 -3.690487233718681084e-15 -5.107146198958999491e-15 4.363261231232033102e-15 5.395158882736878851e-15 -1.637018673031193460e-15 0.000000000000000000e+00 3.237292930130289507e-16 7.883781525630343654e-18 0.000000000000000000e+00 -8.686021081229864607e-15 -1.886902766939570660e-14 0.000000000000000000e+00 -3.398157127690188552e-15 2.237779695010512660e-15 4.363261231232033102e-15 5.395158882736878851e-15 -1.637018673031193460e-15 0.000000000000000000e+00 0.000000000000000000e+00 0.000000000000000000e+00 0.000000000000000000e+00 -4.276285411368808519e-15 -1.800462247084472314e-14 0.000000000000000000e+00 -3.775604889804976194e-15 5.737203657801795260e-15 4.363261231232033102e-15 5.395158882736878851e-15 -1.637018673031193460e-15 0.000000000000000000e+00 0.000000000000000000e+00 0.000000000000000000e+00 0.000000000000000000e+00 -7.142960508650898282e-15 -1.687026241780654551e-14 0.000000000000000000e+00 -2.512824808019906272e-15 -1.017081426877321018e-15 2.440464791652671828e+00 7.133592706898655988e-01 2.999080481927443032e+00 1.350102808593972270e+01 2.164629256001146640e+00 -1.964082462327026235e+01 -1.015042108738916316e+00 8.775704969926188426e+00 -9.774714958342011428e+00 1.267089213536654135e+01 1.131645281801653269e+01 7.583058921925327489e+00 0.000000000000000000e+00 0.000000000000000000e+00 0.000000000000000000e+00 -2.076348187614159845e-15 4.667606764290055873e-15 0.000000000000000000e+00 -6.295947422432729246e-15 -4.334479854965290126e-16 0.000000000000000000e+00 -2.107298577650548193e-15 1.138655845340559148e-15 3.176764718485743145e-15 0.000000000000000000e+00 0.000000000000000000e+00 0.000000000000000000e+00 0.000000000000000000e+00 -5.576556867576958520e-16 -9.158990768448164280e-16 0.000000000000000000e+00 -2.815437442177638616e-15 1.618295820877755521e-15 -2.107298577650548193e-15 1.138655845340559148e-15 3.176764718485743145e-15 0.000000000000000000e+00 -4.081945464332332608e-15 -6.643868937453663311e-16 0.000000000000000000e+00 -1.461419998366975875e-15 -2.638670519655277493e-15 0.000000000000000000e+00 3.481792251748599053e-15 -3.903846412441998189e-15 -2.107298577650548193e-15 1.138655845340559148e-15 3.176764718485743145e-15 0.000000000000000000e+00 0.000000000000000000e+00 0.000000000000000000e+00 0.000000000000000000e+00 -2.398292245103900630e-16 -1.431166866103048539e-15 0.000000000000000000e+00 2.894202823719450235e-16 -1.045390274177316055e-15 -2.107298577650548193e-15 1.138655845340559148e-15 3.176764718485743145e-15 0.000000000000000000e+00 0.000000000000000000e+00 0.000000000000000000e+00 0.000000000000000000e+00 -3.949280674745756469e-15 1.566052181839450554e-15 0.000000000000000000e+00 1.267168629957035667e-16 1.034619127029249618e-16
6.003252968404966623e+02 -5.211253358942614933e-02 -4.243990634443526311e-01 5.173209301563681528e-01 -6.754190307589694742e-01 -1.009472808680531353e+00 1.526662039976061980e+00 9.132222515343849656e-01 5.194000445837918534e-01 -5.292242364458166898e-02 -1.613659760513429797e-01 5.222896156289056346e-01 -2.639897906331464261e-01 1.647465657511891224e-01 8.027130327391784892e-01 1.278354446226275476e+00 2.149643731508563249e+00 -4.144451721474243788e-01 -2.180501794183752118e+00 -2.912509489391091888e-01 1.504243703297822199e+00 -1.515398786579573720e-01 -5.230277715168126784e-01 7.262563219467736975e-01 1.113626168685978163e-01 -1.089480860850740918e+00 -2.895773793841839971e+00 6.105933771300403774e-03 -7.185566308547315650e-02 -7.883355841024820565e-01 1.985098706695027221e-02 -1.706314799322086739e-01 -1.105054434699772825e+00 3.794918879845380483e-02 -8.186026360757631126e-02 1.383434877810255370e-01 -4.837347083771066369e-01 -7.368673516335046969e-01 6.093596090408852639e+00 1.417188571645225048e+00 8.055907373135784422e-01 -1.608856480352602647e+00 -1.157834552089668456e+00 1.928325033271861000e-01 6.716796318856367298e-01 3.140583428514693853e+00 -1.458327417786426849e+01 -3.947954712047993198e+00 2.249136017193430259e+00 1.586313792322106941e+01 1.174966562249035107e+01 -6.688639390990688938e+00 8.184467960993311308e+00 3.972956192900083838e+00 0.000000000000000000e+00 0.000000000000000000e+00 0.000000000000000000e+00 -6.948745750973177795e-16 1.333358750672676943e-15 0.000000000000000000e+00 1.054484436218532455e-15 -1.040018518693259165e-15 0.000000000000000000e+00 4.262194165900794727e-15 5.086144259012116067e-15 -1.667794509856710522e-15 0.000000000000000000e+00 0.000000000000000000e+00 0.000000000000000000e+00 0.000000000000000000e+00 7.850377619543796622e-16 -5.718977093771984394e-15 0.000000000000000000e+00 -3.440021408535959335e-15 -4.378278541947696083e-15 4.262194165900794727e-15 5.086144259012116067e-15 -1.667794509856710522e-15 0.000000000000000000e+00 4.907468933413212444e-16 -4.802321758519978990e-16 0.000000000000000000e+00 -8.165902792262609976e-15 -1.779730029009768213e-14 0.000000000000000000e+00 -3.354056812867794660e-15 2.550202027575291186e-15 4.262194165900794727e-15 5.086144259012116067e-15 -1.667794509856710522e-15 0.000000000000000000e+00 0.000000000000000000e+00 0.000000000000000000e+00 0.000000000000000000e+00 -3.874436891437080996e-15 -1.771958023784461650e-14 0.000000000000000000e+00 -3.392435653791352634e-15 6.103842950865473954e-15 4.262194165900794727e-15 5.086144259012116067e-15 -1.667794509856710522e-15 0.000000000000000000e+00 0.000000000000000000e+00 0.000000000000000000e+00 0.000000000000000000e+00 -7.229992032217878685e-15 -1.824657368190555300e-14 0.000000000000000000e+00 -2.256286715450197817e-15 -6.810940201124928032e-16 2.497980470318474033e+00 6.595911974936317090e-01 2.888906010588959017e+00 1.308433790144666453e+01 2.823284263398685212e+00 -1.893989347594182959e+01 -6.990444047898950464e-01 9.751109584100627004e+00 -9.336384344563649407e+00 1.385942877976176568e+01 1.100209123389933552e+01 8.126484899883431368e+00 0.000000000000000000e+00 0.000000000000000000e+00 0.000000000000000000e+00 -2.369650572068263974e-15 4.597337321819646876e-15 0.000000000000000000e+00 -6.637598755591343394e-15 -3.031377626991432417e-16 0.000000000000000000e+00 -2.087682886157081758e-15 9.102246709589290362e-16 3.093985708752247657e-15 0.000000000000000000e+00 0.000000000000000000e+00 0.000000000000000000e+00 0.000000000000000000e+00 -1.170302179772968501e-16 -2.020076220325473923e-15 0.000000000000000000e+00 -2.700232726050278761e-15 8.832758396455856872e-16 -2.087682886157081758e-15 9.102246709589290362e-16 3.093985708752247657e-15 0.000000000000000000e+00 -4.053989270697684721e-15 -7.898344495600757861e-16 0.000000000000000000e+00 -1.444518482759403428e-15 -4.079260994775189397e-15 0.000000000000000000e+00 4.003906850678400449e-15 -4.290526063671137618e-15 -2.087682886157081758e-15 9.102246709589290362e-16 3.093985708752247657e-15 0.000000000000000000e+00 0.000000000000000000e+00 0.000000000000000000e+00 0.000000000000000000e+00 -2.918266413160410825e-16 -2.607377270192986416e-15 0.000000000000000000e+00 5.947345708184391147e-16 -1.338691591946935709e-15 -2.087682886157081758e-15 9.102246709589290362e-16 3.093985708752247657e-15 0.000000000000000000e+00 0.000000000000000000e+00 0.000000000000000000e+00 0.000000000000000000e+00 -3.677002407869413655e-15 -1.815779575902419968e-16 0.000000000000000000e+00 3.337574923313983185e-16 -1.798049007582614721e-16
6.002900280886414066e+02 -3.869387743716158623e-02 -4.095927387729055846e-01 6.286354260885946843e-01 -6.322635270719648704e-01 -8.820661076367766196e-01 1.482924914695687546e+00 8.408267170766241527e-01 4.754676315643374673e-01 2.292063450430387866e-02 -2.015165010406174129e-01 4.463045625565995045e-01 -2.383833624759514047e-01 1.581336378433430001e-01 7.551365064970797514e-01 1.276369447504641874e+00 1.954026096315800265e+00 -3.552900938260072361e-01 -1.946757074956164901e+00 -2.285738021847861512e-01 1.308552947812994693e+00 -1.385436856316555887e-01 -5.347392235033991970e-01 7.312173415532736698e-01 1.713847168040840419e-01 -1.057621588190197137e+00 -2.956948401137045046e+00 1.284192768055284276e-02 -5.012428363705435930e-02 -8.016828333744402402e-01 3.394100523908703815e-02 -1.633491973385561846e-01 -1.158748623487336982e+00 2.954119317818979309e-02 -9.444532721637799444e-02 1.534954267364613267e-01 -4.439849770285884123e-01 -6.630214651671322290e-01 5.360868774930264813e+00 1.211153034670559014e+00 4.509616956274686839e-01 -8.068955360997008830e-01 -1.216124473281678275e+00 5.079078972422186936e-03 3.299544708475399268e-01 4.141695966633776038e+00 -1.382606982605576817e+01 -4.558410511225138961e+00 2.974561348134970640e+00 1.484942219088837589e+01 1.288226509301833822e+01 -7.149690761152659668e+00 7.584766025722450067e+00 3.623643807303067899e+00 0.000000000000000000e+00 0.000000000000000000e+00 0.000000000000000000e+00 -5.455861389181901362e-16 1.566572766987338258e-15 0.000000000000000000e+00 8.076823476612215868e-16 -1.099856846718120577e-15 0.000000000000000000e+00 4.142142177423469346e-15 4.750819801782109550e-15 -1.689431876072038087e-15 0.000000000000000000e+00 0.000000000000000000e+00 0.000000000000000000e+00 0.000000000000000000e+00 1.020286896300460697e-15 -5.291917862948606464e-15 0.000000000000000000e+00 -3.173168840654251712e-15 -3.634384885945069180e-15 4.142142177423469346e-15 4.750819801782109550e-15 -1.689431876072038087e-15 0.000000000000000000e+00 6.557458358458258493e-16 -9.547413486154847822e-16 0.000000000000000000e+00 -7.603583708400712816e-15 -1.666961531006110964e-14 0.000000000000000000e+00 -3.280048809887024408e-15 2.851031850263935273e-15 4.142142177423469346e-15 4.750819801782109550e-15 -1.689431876072038087e-15 0.000000000000000000e+00 0.000000000000000000e+00 0.000000000000000000e+00 0.000000000000000000e+00 -3.460025779997757179e-15 -1.739250928255954284e-14 0.000000000000000000e+00 -2.995722600452549010e-15 6.417248288563598884e-15 4.142142177423469346e-15 4.750819801782109550e-15 -1.689431876072038087e-15 0.000000000000000000e+00 0.000000000000000000e+00 0.000000000000000000e+00 0.000000000000000000e+00 -7.295834845046573543e-15 -1.963936456250685763e-14 0.000000000000000000e+00 -1.979184370837917748e-15 -3.580008588807990473e-16 2.548006827694420551e+00 6.041561021209771454e-01 2.762220021555111149e+00 1.260253603263947397e+01 3.478265692163687195e+00 -1.814522259717767483e+01 -3.674024130096170682e-01 1.070383708014653124e+01 -8.845564237150652431e+00 1.499841266142321317e+01 1.063929772959106934e+01 8.633523945414777856e+00 0.000000000000000000e+00 0.000000000000000000e+00 0.000000000000000000e+00 -2.640661639228175630e-15 4.493480714355332286e-15 0.000000000000000000e+00 -6.920985024216483414e-15 -1.793286459008368457e-16 0.000000000000000000e+00 -2.056447989675268253e-15 6.699096464680497704e-16 2.995982380627630149e-15 0.000000000000000000e+00 0.000000000000000000e+00 0.000000000000000000e+00 0.000000000000000000e+00 3.071253156874096246e-16 -3.079216082503460620e-15 0.000000000000000000e+00 -2.562079396067837741e-15 1.671695685946839290e-16 -2.056447989675268253e-15 6.699096464680497704e-16 2.995982380627630149e-15 0.000000000000000000e+00 -4.006360381119865181e-15 -8.975001144532756787e-16 0.000000000000000000e+00 -1.425854819551123557e-15 -5.459706773150059165e-15 0.000000000000000000e+00 4.489804182355157390e-15 -4.644225105308305998e-15 -2.056447989675268253e-15 6.699096464680497704e-16 2.995982380627630149e-15 0.000000000000000000e+00 0.000000000000000000e+00 0.000000000000000000e+00 0.000000000000000000e+00 -3.548894209681739589e-16 -3.718622735525035020e-15 0.000000000000000000e+00 8.930726567046821199e-16 -1.600885236322227056e-15 -2.056447989675268253e-15 6.699096464680497704e-16 2.995982380627630149e-15 0.000000000000000000e+00 0.000000000000000000e+00 0.000000000000000000e+00 0.000000000000000000e+00 -3.401428335983865780e-15 -1.881350228371564344e-15 0.000000000000000000e+00 5.342009142017680346e-16 -4.369688274231197785e-16
